<svg xmlns="http://www.w3.org/2000/svg" viewBox="0 0 101.78 99.15"><g id="Layer_2" data-name="Layer 2"><g id="Crop_Marks" data-name="Crop Marks"><path d="M83.74,0H36A18,18,0,0,0,18.22,15.38H18a18.05,18.05,0,0,0-18,18V81.12a18.05,18.05,0,0,0,18,18H65.74A18,18,0,0,0,83.55,83.77h.19a18.05,18.05,0,0,0,18-18V18A18.05,18.05,0,0,0,83.74,0Zm-18,92.05H18A10.94,10.94,0,0,1,7.1,81.12V33.41A10.94,10.94,0,0,1,18,22.48H65.74A11,11,0,0,1,76.67,33.41V81.12A10.94,10.94,0,0,1,65.74,92.05ZM94.68,65.74A10.94,10.94,0,0,1,83.77,76.67V33.41a18.05,18.05,0,0,0-18-18H25.43A11,11,0,0,1,36,7.1h47.7A11,11,0,0,1,94.68,18Z"/></g></g></svg>