<svg xmlns="http://www.w3.org/2000/svg" viewBox="0 0 103 94.56"><defs><style>.cls-1{fill:#7f7f7f;}</style></defs><g id="Layer_2" data-name="Layer 2"><g id="Crop_Marks" data-name="Crop Marks"><path class="cls-1" d="M87.08,21.07A17.72,17.72,0,0,1,59.45,35.75,25.48,25.48,0,0,0,60,6.05a17.72,17.72,0,0,1,27.09,15Z"/><path class="cls-1" d="M103,63.21C103,73.43,92.07,82,77.35,84.33a23.45,23.45,0,0,0,5.61-15c0-11.88-9.51-22-23.69-26.9a50.65,50.65,0,0,1,10.1-1C87.94,41.46,103,51.2,103,63.21Z"/><circle class="cls-1" cx="38.98" cy="20.52" r="20.52"/><ellipse class="cls-1" cx="38.98" cy="69.36" rx="38.98" ry="25.2"/></g></g></svg>